<svg width="43" height="34" viewBox="0 0 43 34" fill="none" xmlns="http://www.w3.org/2000/svg">
<g id="Capa 2">
<path id="Vector" d="M36.2307 0.919922H6.2547C2.90679 0.919922 0.179688 3.64703 0.179688 6.99494V27.9249C0.179688 31.2728 2.90679 33.9999 6.2547 33.9999H36.2307C39.5786 33.9999 42.3057 31.2728 42.3057 27.9249V6.99494C42.3057 3.64703 39.5786 0.919922 36.2307 0.919922ZM36.2307 3.8244C36.4746 3.8244 36.7185 3.84657 36.9623 3.91309L24.3245 18.2581C23.5485 19.145 22.44 19.6327 21.2649 19.6327C20.0898 19.6327 18.9812 19.1228 18.2052 18.2581L5.54521 3.91309C5.76693 3.86874 6.01081 3.8244 6.27687 3.8244H36.2528H36.2307ZM39.4012 27.9249C39.4012 29.6765 37.9822 31.0954 36.2307 31.0954H6.2547C4.50315 31.0954 3.08416 29.6765 3.08416 27.9249V6.99494C3.08416 6.57368 3.17285 6.15242 3.32805 5.79767L16.0102 20.187C17.3405 21.6947 19.2472 22.5594 21.2649 22.5594C23.2825 22.5594 25.1892 21.6947 26.5195 20.187L39.2017 5.79767C39.3569 6.17459 39.4456 6.57368 39.4456 6.99494V27.9249H39.4012Z" fill="white"/>
</g>
</svg>
