<svg width="36" height="36" viewBox="0 0 36 36" fill="none" xmlns="http://www.w3.org/2000/svg">
<g clip-path="url(#clip0_124_962)">
<path d="M0 36L2.57851 26.3617C1.11074 23.7295 0.33719 20.7609 0.33719 17.7724C0.357025 7.97581 8.35041 0 18.1686 0C27.9868 0 36 7.97581 36 17.7922C36 27.6086 28.0066 35.5844 18.1686 35.5844C15.2132 35.5844 12.2975 34.8323 9.69917 33.4272L0 36.0198L0 36ZM10.1752 29.8054L10.7901 30.1616C13.0314 31.4876 15.5901 32.2001 18.1686 32.2001C26.1421 32.2001 32.6281 25.7284 32.6281 17.7724C32.6281 9.81638 26.1421 3.36449 18.1686 3.36449C10.195 3.36449 3.72893 9.83617 3.72893 17.7922C3.72893 20.4244 4.46281 22.9972 5.85124 25.2732L6.2281 25.8867L4.78017 31.2699L10.195 29.8252L10.1752 29.8054Z" fill="white"/>
<path fill-rule="evenodd" clip-rule="evenodd" d="M24.7934 20.2462C24.0595 19.8108 23.1075 19.316 22.2347 19.6723C21.5802 19.9493 21.1438 20.9785 20.7273 21.5128C20.5091 21.7899 20.2513 21.8295 19.9141 21.6909C17.4347 20.7014 15.5108 19.0389 14.1422 16.763C13.9042 16.4067 13.9438 16.1297 14.2414 15.7932C14.6579 15.2984 15.1736 14.7443 15.2926 14.0912C15.4116 13.4381 15.0942 12.6662 14.8166 12.0725C14.4595 11.3204 14.0827 10.2517 13.329 9.83608C12.6347 9.44026 11.7223 9.65796 11.1075 10.1725C10.0562 11.0433 9.54053 12.3891 9.56037 13.7151C9.56037 14.0912 9.61987 14.4672 9.69921 14.8432C9.91739 15.7338 10.3141 16.5453 10.7901 17.3369C11.1273 17.9306 11.524 18.5046 11.9207 19.0587C13.2496 20.8597 14.9157 22.4232 16.8199 23.6107C17.7719 24.2044 18.8033 24.719 19.8744 25.0554C21.0645 25.4513 22.1356 25.8669 23.4447 25.6096C24.7934 25.3523 26.1422 24.5211 26.6777 23.2149C26.8364 22.8388 26.9157 22.4034 26.8364 21.9878C26.6579 21.1368 25.5075 20.642 24.8331 20.2462H24.7934Z" fill="white"/>
</g>
<defs>
<clipPath id="clip0_124_962">
<rect width="36" height="36" fill="white"/>
</clipPath>
</defs>
</svg>
