<svg width="35" height="42" viewBox="0 0 35 42" fill="none" xmlns="http://www.w3.org/2000/svg">
<g id="Capa 1">
<g id="Group">
<path id="Vector" d="M25.927 9.45992C25.927 14.1338 22.141 17.9198 17.4838 17.9198C12.8267 17.9198 9.04065 14.1338 9.04065 9.45992C9.04065 4.78602 12.8267 1 17.4838 1C22.141 1 25.927 4.78602 25.927 9.45992Z" stroke="white" stroke-width="2" stroke-miterlimit="10"/>
<path id="Vector_2" d="M17.4837 20.7678C8.83954 20.7678 1.82031 27.787 1.82031 36.4312C1.82031 38.6928 3.66307 40.5356 5.92463 40.5356H29.0261C31.2876 40.5356 33.1304 38.6928 33.1304 36.4312C33.1304 27.787 26.1112 20.7678 17.467 20.7678H17.4837Z" stroke="white" stroke-width="2" stroke-miterlimit="10"/>
</g>
<path id="Vector_3" d="M13.3962 14.0165C13.3962 13.2794 14.0328 12.6763 14.8034 12.6763H17.6513C18.4219 12.6763 19.0585 13.2794 19.0585 14.0332C19.0585 14.7871 18.4219 15.3734 17.6513 15.3734H14.8034C14.0328 15.3734 13.3962 14.7703 13.3962 14.0165ZM14.8034 13.8322C14.6527 13.8322 14.5522 13.9327 14.5522 14.0332C14.5522 14.117 14.6527 14.2175 14.8034 14.2175H17.6513C17.8021 14.2175 17.9026 14.117 17.9026 14.0165C17.9026 13.9327 17.8021 13.8322 17.6513 13.8322H14.8034Z" fill="white"/>
<path id="Vector_4" d="M13.3961 14.0166C13.3961 13.6983 13.5301 13.4303 13.7144 13.1957C11.8549 12.978 10.5314 12.4084 9.81107 11.5373C9.04047 10.5824 9.24149 9.594 9.24149 9.594C9.29175 9.34271 9.14098 9.09143 8.8897 9.04117C8.63841 8.99091 8.38713 9.15844 8.33687 9.39297C8.33687 9.44323 8.05208 10.8337 9.09072 12.1236C9.94509 13.179 11.4025 13.8323 13.4128 14.1004C13.4128 14.0669 13.3961 14.0501 13.3961 14.0166Z" fill="white" stroke="white" stroke-width="2" stroke-miterlimit="10"/>
<path id="Vector_5" d="M9.04042 12.6262V6.22681H6.99664C6.99664 6.22681 5.53918 6.79639 5.53918 9.79505C5.53918 12.7937 7.13065 12.6764 7.13065 12.6764L9.04042 12.6094V12.6262Z" stroke="white" stroke-width="2" stroke-miterlimit="10"/>
<path id="Vector_6" d="M25.9268 12.6262V6.22681H27.9705C27.9705 6.22681 29.428 6.79639 29.428 9.79505C29.428 12.7937 27.8365 12.6764 27.8365 12.6764L25.9268 12.6094V12.6262Z" stroke="white" stroke-width="2" stroke-miterlimit="10"/>
</g>
</svg>
