<svg width="37" height="37" viewBox="0 0 37 37" fill="none" xmlns="http://www.w3.org/2000/svg">
<g id="Recurso 14" clip-path="url(#clip0_124_978)">
<g id="Capa 1">
<g id="Group">
<path id="Vector" d="M28.2852 6.59546C27.0958 6.59546 26.1227 7.56857 26.1227 8.75794C26.1227 9.9473 27.0958 10.9204 28.2852 10.9204C29.4745 10.9204 30.4476 9.9473 30.4476 8.75794C30.4476 7.56857 29.4745 6.59546 28.2852 6.59546Z" fill="white"/>
<path id="Vector_2" d="M18.6405 9.38525C13.6236 9.38525 9.5365 13.4723 9.5365 18.4893C9.5365 23.5062 13.6236 27.5933 18.6405 27.5933C23.6575 27.5933 27.7446 23.5062 27.7446 18.4893C27.7446 13.4723 23.6575 9.38525 18.6405 9.38525ZM18.6405 24.328C15.4184 24.328 12.8018 21.7114 12.8018 18.4893C12.8018 15.2672 15.4184 12.6506 18.6405 12.6506C21.8626 12.6506 24.4792 15.2672 24.4792 18.4893C24.4792 21.7114 21.8626 24.328 18.6405 24.328Z" fill="white"/>
<path id="Vector_3" d="M25.8849 37H11.1151C4.99532 37 0 32.0047 0 25.8849V11.1151C0 4.99532 4.99532 0 11.1151 0H25.8849C32.0047 0 37 4.99532 37 11.1151V25.8849C37 32.0047 32.0047 37 25.8849 37ZM11.1151 3.48159C6.8983 3.48159 3.48159 6.8983 3.48159 11.1151V25.8849C3.48159 30.1017 6.8983 33.5184 11.1151 33.5184H25.8849C30.1017 33.5184 33.5184 30.1017 33.5184 25.8849V11.1151C33.5184 6.8983 30.1017 3.48159 25.8849 3.48159H11.1151Z" fill="white"/>
</g>
</g>
</g>
<defs>
<clipPath id="clip0_124_978">
<rect width="37" height="37" fill="white"/>
</clipPath>
</defs>
</svg>
