<svg width="30" height="43" viewBox="0 0 30 43" fill="none" xmlns="http://www.w3.org/2000/svg">
<g id="Recurso 12" clip-path="url(#clip0_124_969)">
<g id="Capa 1">
<g id="Group">
<path id="Vector" d="M23.6498 0H6.35022C2.84798 0 0 2.85637 0 6.36894V36.6311C0 40.1436 2.84798 43 6.35022 43H23.669C27.1713 43 30.0192 40.1436 30.0192 36.6311V6.36894C30.0192 2.85637 27.1713 0 23.669 0H23.6498ZM6.35022 2.93357H23.669C25.5548 2.93357 27.0943 4.47756 27.0943 6.36894V30.6288H2.92495V6.36894C2.92495 4.47756 4.4644 2.93357 6.35022 2.93357ZM23.669 40.0664H6.35022C4.4644 40.0664 2.92495 38.5224 2.92495 36.6311V33.5431H27.075V36.6311C27.075 38.5224 25.5356 40.0664 23.6498 40.0664H23.669Z" fill="white"/>
<path id="Vector_2" d="M14.6055 7.16024C15.2597 7.16024 15.7793 6.63915 15.7793 5.98295C15.7793 5.32676 15.2597 4.80566 14.6055 4.80566C13.9512 4.80566 13.4316 5.32676 13.4316 5.98295C13.4316 6.63915 13.9512 7.16024 14.6055 7.16024Z" fill="white"/>
<path id="Vector_3" d="M14.6055 35.3765C13.9512 35.3765 13.4316 35.8976 13.4316 36.5538C13.4316 37.2099 13.9512 37.731 14.6055 37.731C15.2597 37.731 15.7793 37.2099 15.7793 36.5538C15.7793 35.8976 15.2597 35.3765 14.6055 35.3765Z" fill="white"/>
</g>
</g>
</g>
<defs>
<clipPath id="clip0_124_969">
<rect width="30" height="43" fill="white"/>
</clipPath>
</defs>
</svg>
